STARTFONT 2.1
FONT -Monotype-Bembo-Regular-I-Normal--14-140-72-72-P-67-iso8859-1
SIZE 14 72 72
FONTBOUNDINGBOX 20 18 -3 -4

STARTPROPERTIES 22
FOUNDRY "Monotype"
FAMILY_NAME "Bembo"
WEIGHT_NAME "Regular"
SLANT "I"
SETWIDTH_NAME "Normal"
ADD_STYLE_NAME ""
PIXEL_SIZE 14
POINT_SIZE 140
RESOLUTION_X 72
RESOLUTION_Y 72
SPACING "P"
AVERAGE_WIDTH 67
CHARSET_REGISTRY "iso8859"
CHARSET_ENCODING "1"
COPYRIGHT "Copyright (c) 1996 Monotype Typography Ltd."
CAP_HEIGHT 11
X_HEIGHT 7
WEIGHT 10
QUAD_WIDTH 8
DEFAULT_CHAR 32
FONT_DESCENT 4
FONT_ASCENT 14
ENDPROPERTIES

CHARS 191

STARTCHAR space
ENCODING 32
SWIDTH 278 0
DWIDTH 5 0
BBX 0 0 0 0
BITMAP
ENDCHAR

STARTCHAR exclam
ENCODING 33
SWIDTH 292 0
DWIDTH 4 0
BBX 3 10 1 0
BITMAP
20
20
20
40
40
40
40
00
80
80
ENDCHAR

STARTCHAR quotedbl
ENCODING 34
SWIDTH 417 0
DWIDTH 6 0
BBX 4 3 2 7
BITMAP
90
90
90
ENDCHAR

STARTCHAR numbersign
ENCODING 35
SWIDTH 668 0
DWIDTH 10 0
BBX 8 10 1 0
BITMAP
12
12
12
FF
24
24
FF
48
48
48
ENDCHAR

STARTCHAR dollar
ENCODING 36
SWIDTH 459 0
DWIDTH 7 0
BBX 6 11 1 -1
BITMAP
08
38
54
54
50
30
28
28
A8
F0
40
ENDCHAR

STARTCHAR percent
ENCODING 37
SWIDTH 823 0
DWIDTH 12 0
BBX 10 10 1 0
BITMAP
2040
5080
9100
A200
4400
0880
1140
2240
4280
8100
ENDCHAR

STARTCHAR ampersand
ENCODING 38
SWIDTH 708 0
DWIDTH 11 0
BBX 10 10 2 0
BITMAP
1C00
2200
4000
4000
3040
4780
8900
8100
4200
3C00
ENDCHAR

STARTCHAR quoteright
ENCODING 39
SWIDTH 292 0
DWIDTH 4 0
BBX 2 4 2 6
BITMAP
40
40
40
80
ENDCHAR

STARTCHAR parenleft
ENCODING 40
SWIDTH 281 0
DWIDTH 4 0
BBX 4 13 1 -3
BITMAP
10
20
20
40
40
80
80
80
80
80
80
40
40
ENDCHAR

STARTCHAR parenright
ENCODING 41
SWIDTH 281 0
DWIDTH 4 0
BBX 4 13 0 -3
BITMAP
20
20
10
10
10
10
10
10
20
20
40
40
80
ENDCHAR

STARTCHAR asterisk
ENCODING 42
SWIDTH 500 0
DWIDTH 8 0
BBX 5 5 3 5
BITMAP
20
A8
70
70
88
ENDCHAR

STARTCHAR plus
ENCODING 43
SWIDTH 667 0
DWIDTH 10 0
BBX 7 7 2 2
BITMAP
10
10
10
FE
10
10
10
ENDCHAR

STARTCHAR comma
ENCODING 44
SWIDTH 292 0
DWIDTH 4 0
BBX 2 4 1 -2
BITMAP
40
40
40
80
ENDCHAR

STARTCHAR minus
ENCODING 45
SWIDTH 667 0
DWIDTH 10 0
BBX 8 1 1 5
BITMAP
FF
ENDCHAR

STARTCHAR period
ENCODING 46
SWIDTH 292 0
DWIDTH 4 0
BBX 1 2 1 0
BITMAP
80
80
ENDCHAR

STARTCHAR slash
ENCODING 47
SWIDTH 458 0
DWIDTH 7 0
BBX 5 10 2 0
BITMAP
08
08
10
10
20
20
40
40
80
80
ENDCHAR

STARTCHAR zero
ENCODING 48
SWIDTH 510 0
DWIDTH 8 0
BBX 7 10 1 0
BITMAP
1C
22
42
42
42
82
84
84
88
70
ENDCHAR

STARTCHAR one
ENCODING 49
SWIDTH 510 0
DWIDTH 8 0
BBX 4 10 2 0
BITMAP
10
30
50
20
20
20
20
40
40
E0
ENDCHAR

STARTCHAR two
ENCODING 50
SWIDTH 510 0
DWIDTH 8 0
BBX 7 10 0 0
BITMAP
1C
22
02
04
04
08
10
20
48
F8
ENDCHAR

STARTCHAR three
ENCODING 51
SWIDTH 510 0
DWIDTH 8 0
BBX 6 10 1 0
BITMAP
18
24
04
08
30
08
08
08
90
60
ENDCHAR

STARTCHAR four
ENCODING 52
SWIDTH 510 0
DWIDTH 8 0
BBX 7 10 1 0
BITMAP
02
06
0C
14
24
44
FE
08
08
08
ENDCHAR

STARTCHAR five
ENCODING 53
SWIDTH 510 0
DWIDTH 8 0
BBX 7 10 1 0
BITMAP
1E
10
20
38
04
04
04
04
88
70
ENDCHAR

STARTCHAR six
ENCODING 54
SWIDTH 510 0
DWIDTH 8 0
BBX 7 10 1 0
BITMAP
06
18
20
40
78
C4
84
84
88
70
ENDCHAR

STARTCHAR seven
ENCODING 55
SWIDTH 510 0
DWIDTH 8 0
BBX 6 10 2 0
BITMAP
FC
84
08
08
10
10
20
20
40
40
ENDCHAR

STARTCHAR eight
ENCODING 56
SWIDTH 510 0
DWIDTH 8 0
BBX 7 10 1 0
BITMAP
1C
22
22
24
18
28
44
84
84
78
ENDCHAR

STARTCHAR nine
ENCODING 57
SWIDTH 510 0
DWIDTH 8 0
BBX 7 10 1 0
BITMAP
1C
22
42
42
46
3C
04
08
30
C0
ENDCHAR

STARTCHAR colon
ENCODING 58
SWIDTH 292 0
DWIDTH 4 0
BBX 2 6 0 0
BITMAP
40
40
00
00
80
80
ENDCHAR

STARTCHAR semicolon
ENCODING 59
SWIDTH 292 0
DWIDTH 4 0
BBX 3 8 0 -2
BITMAP
20
20
00
00
40
40
40
80
ENDCHAR

STARTCHAR less
ENCODING 60
SWIDTH 667 0
DWIDTH 10 0
BBX 8 7 1 1
BITMAP
03
0C
30
C0
30
0C
03
ENDCHAR

STARTCHAR equal
ENCODING 61
SWIDTH 667 0
DWIDTH 10 0
BBX 8 4 1 3
BITMAP
FF
00
00
FF
ENDCHAR

STARTCHAR greater
ENCODING 62
SWIDTH 667 0
DWIDTH 10 0
BBX 8 7 1 1
BITMAP
C0
30
0C
03
0C
30
C0
ENDCHAR

STARTCHAR question
ENCODING 63
SWIDTH 396 0
DWIDTH 6 0
BBX 5 10 1 0
BITMAP
70
08
08
18
30
60
40
00
80
80
ENDCHAR

STARTCHAR at
ENCODING 64
SWIDTH 917 0
DWIDTH 14 0
BBX 13 13 1 -3
BITMAP
07C0
1820
2010
4348
4488
8888
8910
9110
9320
5CC0
4010
3060
0F80
ENDCHAR

STARTCHAR A
ENCODING 65
SWIDTH 698 0
DWIDTH 10 0
BBX 10 10 0 0
BITMAP
0080
0180
0280
0480
0880
0F80
1080
2080
4080
F3C0
ENDCHAR

STARTCHAR B
ENCODING 66
SWIDTH 615 0
DWIDTH 9 0
BBX 9 10 0 0
BITMAP
3F00
1080
1080
2100
3F00
2080
2080
4080
4100
FE00
ENDCHAR

STARTCHAR C
ENCODING 67
SWIDTH 729 0
DWIDTH 11 0
BBX 9 10 1 0
BITMAP
1F00
2080
4080
4000
8000
8000
8000
8100
4200
3C00
ENDCHAR

STARTCHAR D
ENCODING 68
SWIDTH 760 0
DWIDTH 11 0
BBX 11 10 0 0
BITMAP
3F80
1040
1020
2020
2020
2040
2040
4080
4100
FE00
ENDCHAR

STARTCHAR E
ENCODING 69
SWIDTH 625 0
DWIDTH 9 0
BBX 10 10 0 0
BITMAP
3FC0
1040
1000
2100
3E00
2200
2000
4080
4100
FF00
ENDCHAR

STARTCHAR F
ENCODING 70
SWIDTH 563 0
DWIDTH 8 0
BBX 9 10 0 0
BITMAP
3F80
1080
1000
2200
3C00
2400
2000
4000
4000
E000
ENDCHAR

STARTCHAR G
ENCODING 71
SWIDTH 781 0
DWIDTH 12 0
BBX 10 10 1 0
BITMAP
1F80
2040
4040
4000
8000
8000
81C0
8080
4180
3E00
ENDCHAR

STARTCHAR H
ENCODING 72
SWIDTH 760 0
DWIDTH 11 0
BBX 11 10 0 0
BITMAP
38E0
1040
1040
2080
3F80
2080
2080
4100
4100
E380
ENDCHAR

STARTCHAR I
ENCODING 73
SWIDTH 323 0
DWIDTH 5 0
BBX 5 10 0 0
BITMAP
38
10
10
20
20
20
20
40
40
E0
ENDCHAR

STARTCHAR J
ENCODING 74
SWIDTH 302 0
DWIDTH 5 0
BBX 8 13 -2 -3
BITMAP
0F
04
04
04
04
08
08
08
08
08
10
10
E0
ENDCHAR

STARTCHAR K
ENCODING 75
SWIDTH 708 0
DWIDTH 11 0
BBX 11 10 0 0
BITMAP
3CE0
1100
1200
2400
3800
2800
2400
4200
4100
E0C0
ENDCHAR

STARTCHAR L
ENCODING 76
SWIDTH 583 0
DWIDTH 9 0
BBX 8 10 0 0
BITMAP
3C
10
10
20
20
20
20
40
41
FE
ENDCHAR

STARTCHAR M
ENCODING 77
SWIDTH 854 0
DWIDTH 13 0
BBX 14 10 0 0
BITMAP
381C
1818
1428
2450
2450
2490
2510
4320
4220
E270
ENDCHAR

STARTCHAR N
ENCODING 78
SWIDTH 771 0
DWIDTH 12 0
BBX 13 10 0 0
BITMAP
3038
1010
1810
2420
2420
2220
2120
4140
40C0
E040
ENDCHAR

STARTCHAR O
ENCODING 79
SWIDTH 792 0
DWIDTH 12 0
BBX 10 10 1 0
BITMAP
1F00
2080
4040
4040
8040
8040
8080
8080
4100
3E00
ENDCHAR

STARTCHAR P
ENCODING 80
SWIDTH 563 0
DWIDTH 8 0
BBX 9 10 0 0
BITMAP
3F00
1080
1080
2080
2100
2E00
2000
4000
4000
E000
ENDCHAR

STARTCHAR Q
ENCODING 81
SWIDTH 792 0
DWIDTH 12 0
BBX 10 13 1 -3
BITMAP
1F00
2080
4040
4040
8040
8040
8080
8080
4100
3E00
0800
0600
01C0
ENDCHAR

STARTCHAR R
ENCODING 82
SWIDTH 698 0
DWIDTH 10 0
BBX 11 10 0 0
BITMAP
3F00
1080
1080
2080
2100
3E00
2400
4200
4100
E0E0
ENDCHAR

STARTCHAR S
ENCODING 83
SWIDTH 531 0
DWIDTH 8 0
BBX 8 10 0 0
BITMAP
0F
11
21
20
18
04
02
02
84
F8
ENDCHAR

STARTCHAR T
ENCODING 84
SWIDTH 656 0
DWIDTH 10 0
BBX 10 10 1 0
BITMAP
7FC0
8440
0400
0800
0800
0800
0800
1000
1000
3800
ENDCHAR

STARTCHAR U
ENCODING 85
SWIDTH 729 0
DWIDTH 11 0
BBX 10 10 2 0
BITMAP
71C0
2080
2080
4100
4100
4100
8200
8200
8400
7800
ENDCHAR

STARTCHAR V
ENCODING 86
SWIDTH 698 0
DWIDTH 10 0
BBX 10 10 2 0
BITMAP
E1C0
4080
4100
4200
4400
4400
4800
5000
6000
4000
ENDCHAR

STARTCHAR W
ENCODING 87
SWIDTH 958 0
DWIDTH 14 0
BBX 15 10 2 0
BITMAP
E38E
4104
4308
4510
4510
4920
5140
5140
6180
4100
ENDCHAR

STARTCHAR X
ENCODING 88
SWIDTH 688 0
DWIDTH 10 0
BBX 12 10 -1 0
BITMAP
3CF0
0840
0880
0500
0600
0600
0900
1100
2080
F1E0
ENDCHAR

STARTCHAR Y
ENCODING 89
SWIDTH 625 0
DWIDTH 9 0
BBX 8 10 2 0
BITMAP
E7
42
44
48
30
20
20
40
40
E0
ENDCHAR

STARTCHAR Z
ENCODING 90
SWIDTH 688 0
DWIDTH 10 0
BBX 10 10 1 0
BITMAP
1FC0
2080
0100
0200
0400
0800
1000
2000
4100
FE00
ENDCHAR

STARTCHAR bracketleft
ENCODING 91
SWIDTH 302 0
DWIDTH 5 0
BBX 5 14 1 -4
BITMAP
38
20
20
20
20
40
40
40
40
80
80
80
80
E0
ENDCHAR

STARTCHAR backslash
ENCODING 92
SWIDTH 219 0
DWIDTH 3 0
BBX 3 11 1 -1
BITMAP
80
80
80
80
40
40
40
20
20
20
20
ENDCHAR

STARTCHAR bracketright
ENCODING 93
SWIDTH 302 0
DWIDTH 5 0
BBX 5 14 0 -4
BITMAP
38
08
08
08
08
10
10
10
10
20
20
20
20
E0
ENDCHAR

STARTCHAR asciicircum
ENCODING 94
SWIDTH 427 0
DWIDTH 6 0
BBX 6 6 1 4
BITMAP
10
30
48
48
84
84
ENDCHAR

STARTCHAR underscore
ENCODING 95
SWIDTH 500 0
DWIDTH 8 0
BBX 8 1 -1 -2
BITMAP
FF
ENDCHAR

STARTCHAR quoteleft
ENCODING 96
SWIDTH 292 0
DWIDTH 4 0
BBX 2 3 2 7
BITMAP
40
80
80
ENDCHAR

STARTCHAR a
ENCODING 97
SWIDTH 406 0
DWIDTH 6 0
BBX 6 6 0 0
BITMAP
38
48
48
90
B4
D8
ENDCHAR

STARTCHAR b
ENCODING 98
SWIDTH 406 0
DWIDTH 6 0
BBX 5 10 1 0
BITMAP
60
20
20
40
58
68
88
90
90
60
ENDCHAR

STARTCHAR c
ENCODING 99
SWIDTH 271 0
DWIDTH 4 0
BBX 4 6 0 0
BITMAP
30
50
80
80
90
60
ENDCHAR

STARTCHAR d
ENCODING 100
SWIDTH 438 0
DWIDTH 7 0
BBX 6 10 1 0
BITMAP
0C
04
04
08
38
48
48
90
B4
D8
ENDCHAR

STARTCHAR e
ENCODING 101
SWIDTH 344 0
DWIDTH 5 0
BBX 4 6 0 0
BITMAP
30
50
E0
80
90
60
ENDCHAR

STARTCHAR f
ENCODING 102
SWIDTH 229 0
DWIDTH 3 0
BBX 8 13 -3 -3
BITMAP
03
04
08
08
1C
08
10
10
10
10
20
20
C0
ENDCHAR

STARTCHAR g
ENCODING 103
SWIDTH 375 0
DWIDTH 6 0
BBX 7 9 -1 -3
BITMAP
1E
24
24
28
10
20
78
84
78
ENDCHAR

STARTCHAR h
ENCODING 104
SWIDTH 458 0
DWIDTH 7 0
BBX 6 10 1 0
BITMAP
60
20
20
40
58
68
48
90
94
98
ENDCHAR

STARTCHAR i
ENCODING 105
SWIDTH 240 0
DWIDTH 4 0
BBX 3 9 1 0
BITMAP
20
20
00
C0
40
40
80
A0
C0
ENDCHAR

STARTCHAR j
ENCODING 106
SWIDTH 240 0
DWIDTH 4 0
BBX 6 12 -2 -3
BITMAP
04
04
00
18
08
08
10
10
10
20
20
C0
ENDCHAR

STARTCHAR k
ENCODING 107
SWIDTH 458 0
DWIDTH 7 0
BBX 6 10 1 0
BITMAP
60
20
20
40
58
68
50
A0
94
88
ENDCHAR

STARTCHAR l
ENCODING 108
SWIDTH 229 0
DWIDTH 3 0
BBX 3 10 0 0
BITMAP
60
20
20
40
40
40
40
80
A0
C0
ENDCHAR

STARTCHAR m
ENCODING 109
SWIDTH 677 0
DWIDTH 10 0
BBX 10 6 0 0
BITMAP
6D80
B680
2480
4900
4940
4980
ENDCHAR

STARTCHAR n
ENCODING 110
SWIDTH 469 0
DWIDTH 7 0
BBX 7 6 0 0
BITMAP
6C
B4
24
48
4A
4C
ENDCHAR

STARTCHAR o
ENCODING 111
SWIDTH 396 0
DWIDTH 6 0
BBX 4 6 1 0
BITMAP
20
50
90
90
A0
40
ENDCHAR

STARTCHAR p
ENCODING 112
SWIDTH 438 0
DWIDTH 7 0
BBX 7 9 -1 -3
BITMAP
34
5A
12
22
24
38
40
40
E0
ENDCHAR

STARTCHAR q
ENCODING 113
SWIDTH 417 0
DWIDTH 6 0
BBX 5 9 0 -3
BITMAP
38
48
48
90
B0
D0
20
20
70
ENDCHAR

STARTCHAR r
ENCODING 114
SWIDTH 271 0
DWIDTH 4 0
BBX 5 6 0 0
BITMAP
68
B0
20
40
40
40
ENDCHAR

STARTCHAR s
ENCODING 115
SWIDTH 302 0
DWIDTH 5 0
BBX 4 6 0 0
BITMAP
30
50
60
30
90
E0
ENDCHAR

STARTCHAR t
ENCODING 116
SWIDTH 260 0
DWIDTH 4 0
BBX 3 8 0 0
BITMAP
20
40
E0
40
40
80
A0
C0
ENDCHAR

STARTCHAR u
ENCODING 117
SWIDTH 469 0
DWIDTH 7 0
BBX 7 6 0 0
BITMAP
64
A4
24
48
5A
64
ENDCHAR

STARTCHAR v
ENCODING 118
SWIDTH 406 0
DWIDTH 6 0
BBX 6 6 0 0
BITMAP
6C
A4
24
48
50
60
ENDCHAR

STARTCHAR w
ENCODING 119
SWIDTH 604 0
DWIDTH 9 0
BBX 9 6 0 0
BITMAP
6580
A480
2480
4C80
5500
6600
ENDCHAR

STARTCHAR x
ENCODING 120
SWIDTH 490 0
DWIDTH 7 0
BBX 7 6 0 0
BITMAP
26
5A
10
10
B4
D8
ENDCHAR

STARTCHAR y
ENCODING 121
SWIDTH 438 0
DWIDTH 7 0
BBX 6 9 0 -3
BITMAP
44
A4
28
28
30
20
20
40
E0
ENDCHAR

STARTCHAR z
ENCODING 122
SWIDTH 500 0
DWIDTH 8 0
BBX 6 6 1 0
BITMAP
64
98
10
20
64
98
ENDCHAR

STARTCHAR braceleft
ENCODING 123
SWIDTH 396 0
DWIDTH 6 0
BBX 3 13 2 -3
BITMAP
20
40
40
40
40
40
80
40
40
40
40
40
20
ENDCHAR

STARTCHAR bar
ENCODING 124
SWIDTH 510 0
DWIDTH 8 0
BBX 1 13 4 -3
BITMAP
80
80
80
80
80
80
80
80
80
80
80
80
80
ENDCHAR

STARTCHAR braceright
ENCODING 125
SWIDTH 396 0
DWIDTH 6 0
BBX 3 13 2 -3
BITMAP
80
40
40
40
40
40
20
40
40
40
40
40
80
ENDCHAR

STARTCHAR asciitilde
ENCODING 126
SWIDTH 542 0
DWIDTH 8 0
BBX 8 2 1 4
BITMAP
71
8E
ENDCHAR

STARTCHAR space
ENCODING 160
SWIDTH 278 0
DWIDTH 4 0
BBX 0 0 0 0
BITMAP
ENDCHAR

STARTCHAR exclamdown
ENCODING 161
SWIDTH 292 0
DWIDTH 4 0
BBX 3 10 1 -3
BITMAP
20
20
00
40
40
40
40
80
80
80
ENDCHAR

STARTCHAR cent
ENCODING 162
SWIDTH 271 0
DWIDTH 4 0
BBX 4 12 0 -3
BITMAP
10
10
10
30
50
40
80
B0
60
40
40
40
ENDCHAR

STARTCHAR sterling
ENCODING 163
SWIDTH 729 0
DWIDTH 11 0
BBX 11 13 0 -3
BITMAP
00C0
0120
0200
0400
0400
0800
0800
1000
7C00
2000
6080
9880
8700
ENDCHAR

STARTCHAR currency
ENCODING 164
SWIDTH 667 0
DWIDTH 10 0
BBX 7 7 2 1
BITMAP
BA
44
82
82
82
44
BA
ENDCHAR

STARTCHAR yen
ENCODING 165
SWIDTH 500 0
DWIDTH 8 0
BBX 9 10 1 0
BITMAP
7380
2100
2200
2400
FE00
1000
FE00
2000
2000
7000
ENDCHAR

STARTCHAR brokenbar
ENCODING 166
SWIDTH 510 0
DWIDTH 8 0
BBX 1 13 4 -3
BITMAP
80
80
80
80
80
80
00
80
80
80
80
80
80
ENDCHAR

STARTCHAR section
ENCODING 167
SWIDTH 479 0
DWIDTH 7 0
BBX 9 13 -1 -3
BITMAP
0380
0C80
1800
2800
2400
2400
1200
1200
0A00
0A00
0C00
9800
E000
ENDCHAR

STARTCHAR dieresis
ENCODING 168
SWIDTH 333 0
DWIDTH 5 0
BBX 3 1 2 7
BITMAP
A0
ENDCHAR

STARTCHAR copyright
ENCODING 169
SWIDTH 760 0
DWIDTH 11 0
BBX 11 11 0 0
BITMAP
1F00
2080
4F40
9120
9020
9020
9020
9120
4F40
2080
1F00
ENDCHAR

STARTCHAR ordfeminine
ENCODING 170
SWIDTH 260 0
DWIDTH 4 0
BBX 4 4 1 6
BITMAP
30
50
B0
D0
ENDCHAR

STARTCHAR guillemotleft
ENCODING 171
SWIDTH 438 0
DWIDTH 7 0
BBX 6 6 0 0
BITMAP
24
48
90
90
48
48
ENDCHAR

STARTCHAR logicalnot
ENCODING 172
SWIDTH 667 0
DWIDTH 10 0
BBX 8 4 1 3
BITMAP
FF
01
01
01
ENDCHAR

STARTCHAR hyphen
ENCODING 173
SWIDTH 333 0
DWIDTH 5 0
BBX 4 1 0 2
BITMAP
F0
ENDCHAR

STARTCHAR registered
ENCODING 174
SWIDTH 760 0
DWIDTH 11 0
BBX 10 10 1 0
BITMAP
1E00
2100
7C80
9240
9240
9C40
9440
7280
2100
1E00
ENDCHAR

STARTCHAR macron
ENCODING 175
SWIDTH 333 0
DWIDTH 5 0
BBX 4 1 2 8
BITMAP
F0
ENDCHAR

STARTCHAR degree
ENCODING 176
SWIDTH 396 0
DWIDTH 6 0
BBX 5 5 2 5
BITMAP
70
88
88
88
70
ENDCHAR

STARTCHAR plusminus
ENCODING 177
SWIDTH 667 0
DWIDTH 10 0
BBX 7 9 2 0
BITMAP
10
10
10
FE
10
10
10
00
FE
ENDCHAR

STARTCHAR twosuperior
ENCODING 178
SWIDTH 313 0
DWIDTH 5 0
BBX 4 5 2 5
BITMAP
60
10
20
40
E0
ENDCHAR

STARTCHAR threesuperior
ENCODING 179
SWIDTH 313 0
DWIDTH 5 0
BBX 3 5 2 5
BITMAP
60
20
40
20
C0
ENDCHAR

STARTCHAR acute
ENCODING 180
SWIDTH 333 0
DWIDTH 5 0
BBX 2 2 3 8
BITMAP
40
80
ENDCHAR

STARTCHAR mu
ENCODING 181
SWIDTH 500 0
DWIDTH 8 0
BBX 8 9 0 -3
BITMAP
22
22
22
44
65
5A
40
80
80
ENDCHAR

STARTCHAR paragraph
ENCODING 182
SWIDTH 448 0
DWIDTH 7 0
BBX 7 13 0 -3
BITMAP
7E
F4
F4
F4
F4
74
14
14
14
14
14
14
14
ENDCHAR

STARTCHAR periodcentered
ENCODING 183
SWIDTH 292 0
DWIDTH 4 0
BBX 1 2 2 4
BITMAP
80
80
ENDCHAR

STARTCHAR cedilla
ENCODING 184
SWIDTH 333 0
DWIDTH 5 0
BBX 3 3 0 -3
BITMAP
40
20
C0
ENDCHAR

STARTCHAR onesuperior
ENCODING 185
SWIDTH 313 0
DWIDTH 5 0
BBX 3 5 2 5
BITMAP
60
20
40
40
E0
ENDCHAR

STARTCHAR ordmasculine
ENCODING 186
SWIDTH 260 0
DWIDTH 4 0
BBX 4 5 1 5
BITMAP
30
50
90
A0
C0
ENDCHAR

STARTCHAR guillemotright
ENCODING 187
SWIDTH 438 0
DWIDTH 7 0
BBX 6 6 1 0
BITMAP
48
48
24
24
48
90
ENDCHAR

STARTCHAR onequarter
ENCODING 188
SWIDTH 823 0
DWIDTH 12 0
BBX 10 10 1 0
BITMAP
3040
1080
2100
2200
7400
08C0
1180
2280
47C0
8100
ENDCHAR

STARTCHAR onehalf
ENCODING 189
SWIDTH 823 0
DWIDTH 12 0
BBX 10 10 2 0
BITMAP
6040
2080
4100
4200
E400
0980
1040
2080
4100
8380
ENDCHAR

STARTCHAR threequarters
ENCODING 190
SWIDTH 823 0
DWIDTH 12 0
BBX 10 10 2 0
BITMAP
6040
2080
4100
2200
C400
0980
1300
2500
4F80
8200
ENDCHAR

STARTCHAR questiondown
ENCODING 191
SWIDTH 396 0
DWIDTH 6 0
BBX 5 10 0 -3
BITMAP
08
08
00
10
30
60
C0
80
80
70
ENDCHAR

STARTCHAR Agrave
ENCODING 192
SWIDTH 698 0
DWIDTH 10 0
BBX 10 13 0 0
BITMAP
0100
0080
0000
0080
0180
0280
0480
0880
0F80
1080
2080
4080
F3C0
ENDCHAR

STARTCHAR Aacute
ENCODING 193
SWIDTH 698 0
DWIDTH 10 0
BBX 10 13 0 0
BITMAP
0080
0100
0000
0080
0180
0280
0480
0880
0F80
1080
2080
4080
F3C0
ENDCHAR

STARTCHAR Acircumflex
ENCODING 194
SWIDTH 698 0
DWIDTH 10 0
BBX 10 13 0 0
BITMAP
00C0
0140
0000
0080
0180
0280
0480
0880
0F80
1080
2080
4080
F3C0
ENDCHAR

STARTCHAR Atilde
ENCODING 195
SWIDTH 698 0
DWIDTH 10 0
BBX 11 13 0 0
BITMAP
01A0
02C0
0000
0080
0180
0280
0480
0880
0F80
1080
2080
4080
F3C0
ENDCHAR

STARTCHAR Adieresis
ENCODING 196
SWIDTH 698 0
DWIDTH 10 0
BBX 10 12 0 0
BITMAP
0140
0000
0080
0180
0280
0480
0880
0F80
1080
2080
4080
F3C0
ENDCHAR

STARTCHAR Aring
ENCODING 197
SWIDTH 698 0
DWIDTH 10 0
BBX 10 14 0 0
BITMAP
0080
0140
0080
0000
0080
0180
0280
0480
0880
0F80
1080
2080
4080
F3C0
ENDCHAR

STARTCHAR AE
ENCODING 198
SWIDTH 948 0
DWIDTH 14 0
BBX 14 10 0 0
BITMAP
03FC
0184
0280
0508
09F0
0F10
1100
2204
4208
E7F8
ENDCHAR

STARTCHAR Ccedilla
ENCODING 199
SWIDTH 729 0
DWIDTH 11 0
BBX 9 13 2 -3
BITMAP
1F00
2080
4080
4000
8000
8000
8000
8100
4200
3C00
1000
0800
7000
ENDCHAR

STARTCHAR Egrave
ENCODING 200
SWIDTH 625 0
DWIDTH 9 0
BBX 10 13 0 0
BITMAP
0400
0200
0000
3FC0
1040
1000
2100
3E00
2200
2000
4080
4100
FF00
ENDCHAR

STARTCHAR Eacute
ENCODING 201
SWIDTH 625 0
DWIDTH 9 0
BBX 10 13 0 0
BITMAP
0100
0200
0000
3FC0
1040
1000
2100
3E00
2200
2000
4080
4100
FF00
ENDCHAR

STARTCHAR Ecircumflex
ENCODING 202
SWIDTH 625 0
DWIDTH 9 0
BBX 10 13 0 0
BITMAP
0300
0500
0000
3FC0
1040
1000
2100
3E00
2200
2000
4080
4100
FF00
ENDCHAR

STARTCHAR Edieresis
ENCODING 203
SWIDTH 625 0
DWIDTH 9 0
BBX 10 12 0 0
BITMAP
0900
0000
3FC0
1040
1000
2100
3E00
2200
2000
4080
4100
FF00
ENDCHAR

STARTCHAR Igrave
ENCODING 204
SWIDTH 323 0
DWIDTH 5 0
BBX 5 13 0 0
BITMAP
20
10
00
38
10
10
20
20
20
20
40
40
E0
ENDCHAR

STARTCHAR Iacute
ENCODING 205
SWIDTH 323 0
DWIDTH 5 0
BBX 6 13 0 0
BITMAP
04
08
00
38
10
10
20
20
20
20
40
40
E0
ENDCHAR

STARTCHAR Icircumflex
ENCODING 206
SWIDTH 323 0
DWIDTH 5 0
BBX 6 13 0 0
BITMAP
0C
14
00
38
10
10
20
20
20
20
40
40
E0
ENDCHAR

STARTCHAR Idieresis
ENCODING 207
SWIDTH 323 0
DWIDTH 5 0
BBX 5 12 0 0
BITMAP
28
00
38
10
10
20
20
20
20
40
40
E0
ENDCHAR

STARTCHAR Eth
ENCODING 208
SWIDTH 760 0
DWIDTH 11 0
BBX 11 10 0 0
BITMAP
3F80
1040
1020
2020
7C20
2040
2040
4080
4100
FE00
ENDCHAR

STARTCHAR Ntilde
ENCODING 209
SWIDTH 771 0
DWIDTH 12 0
BBX 13 13 0 0
BITMAP
0340
0580
0000
3038
1010
1810
2420
2420
2220
2120
4140
40C0
E040
ENDCHAR

STARTCHAR Ograve
ENCODING 210
SWIDTH 792 0
DWIDTH 12 0
BBX 10 13 1 0
BITMAP
0800
0400
0000
1F00
2080
4040
4040
8040
8040
8080
8080
4100
3E00
ENDCHAR

STARTCHAR Oacute
ENCODING 211
SWIDTH 792 0
DWIDTH 12 0
BBX 10 13 1 0
BITMAP
0200
0400
0000
1F00
2080
4040
4040
8040
8040
8080
8080
4100
3E00
ENDCHAR

STARTCHAR Ocircumflex
ENCODING 212
SWIDTH 792 0
DWIDTH 12 0
BBX 10 13 1 0
BITMAP
0300
0500
0000
1F00
2080
4040
4040
8040
8040
8080
8080
4100
3E00
ENDCHAR

STARTCHAR Otilde
ENCODING 213
SWIDTH 792 0
DWIDTH 12 0
BBX 10 13 1 0
BITMAP
0680
0B00
0000
1F00
2080
4040
4040
8040
8040
8080
8080
4100
3E00
ENDCHAR

STARTCHAR Odieresis
ENCODING 214
SWIDTH 792 0
DWIDTH 12 0
BBX 10 12 1 0
BITMAP
0900
0000
1F00
2080
4040
4040
8040
8040
8080
8080
4100
3E00
ENDCHAR

STARTCHAR multiply
ENCODING 215
SWIDTH 667 0
DWIDTH 10 0
BBX 7 7 2 1
BITMAP
82
44
28
10
28
44
82
ENDCHAR

STARTCHAR Oslash
ENCODING 216
SWIDTH 792 0
DWIDTH 12 0
BBX 10 10 1 0
BITMAP
1F40
2080
4140
4240
8440
8840
9080
A080
4100
BE00
ENDCHAR

STARTCHAR Ugrave
ENCODING 217
SWIDTH 729 0
DWIDTH 11 0
BBX 10 13 2 0
BITMAP
0800
0400
0000
71C0
2080
2080
4100
4100
4100
8200
8200
8400
7800
ENDCHAR

STARTCHAR Uacute
ENCODING 218
SWIDTH 729 0
DWIDTH 11 0
BBX 10 13 2 0
BITMAP
0200
0400
0000
71C0
2080
2080
4100
4100
4100
8200
8200
8400
7800
ENDCHAR

STARTCHAR Ucircumflex
ENCODING 219
SWIDTH 729 0
DWIDTH 11 0
BBX 10 13 2 0
BITMAP
0600
0A00
0000
71C0
2080
2080
4100
4100
4100
8200
8200
8400
7800
ENDCHAR

STARTCHAR Udieresis
ENCODING 220
SWIDTH 729 0
DWIDTH 11 0
BBX 10 12 2 0
BITMAP
0900
0000
71C0
2080
2080
4100
4100
4100
8200
8200
8400
7800
ENDCHAR

STARTCHAR Yacute
ENCODING 221
SWIDTH 625 0
DWIDTH 9 0
BBX 8 13 2 0
BITMAP
08
10
00
E7
42
44
48
30
20
20
40
40
E0
ENDCHAR

STARTCHAR Thorn
ENCODING 222
SWIDTH 563 0
DWIDTH 8 0
BBX 8 10 1 0
BITMAP
38
10
1E
21
21
21
22
4C
40
E0
ENDCHAR

STARTCHAR germandbls
ENCODING 223
SWIDTH 438 0
DWIDTH 7 0
BBX 10 13 -3 -3
BITMAP
0180
0240
0440
0480
0900
0880
0880
0880
1100
1200
1000
A000
4000
ENDCHAR

STARTCHAR agrave
ENCODING 224
SWIDTH 406 0
DWIDTH 6 0
BBX 6 9 0 0
BITMAP
20
10
00
38
48
48
90
B4
D8
ENDCHAR

STARTCHAR aacute
ENCODING 225
SWIDTH 406 0
DWIDTH 6 0
BBX 6 9 0 0
BITMAP
08
10
00
38
48
48
90
B4
D8
ENDCHAR

STARTCHAR acircumflex
ENCODING 226
SWIDTH 406 0
DWIDTH 6 0
BBX 6 9 0 0
BITMAP
18
28
00
38
48
48
90
B4
D8
ENDCHAR

STARTCHAR atilde
ENCODING 227
SWIDTH 406 0
DWIDTH 6 0
BBX 7 9 0 0
BITMAP
1A
2C
00
38
48
48
90
B4
D8
ENDCHAR

STARTCHAR adieresis
ENCODING 228
SWIDTH 406 0
DWIDTH 6 0
BBX 6 8 0 0
BITMAP
28
00
38
48
48
90
B4
D8
ENDCHAR

STARTCHAR aring
ENCODING 229
SWIDTH 406 0
DWIDTH 6 0
BBX 6 10 0 0
BITMAP
10
28
10
00
38
48
48
90
B4
D8
ENDCHAR

STARTCHAR ae
ENCODING 230
SWIDTH 573 0
DWIDTH 9 0
BBX 8 6 1 0
BITMAP
1B
2D
4E
58
9A
6C
ENDCHAR

STARTCHAR ccedilla
ENCODING 231
SWIDTH 271 0
DWIDTH 4 0
BBX 4 9 0 -3
BITMAP
30
50
80
80
90
60
40
20
C0
ENDCHAR

STARTCHAR egrave
ENCODING 232
SWIDTH 344 0
DWIDTH 5 0
BBX 4 9 0 0
BITMAP
20
10
00
30
50
E0
80
90
60
ENDCHAR

STARTCHAR eacute
ENCODING 233
SWIDTH 344 0
DWIDTH 5 0
BBX 4 9 0 0
BITMAP
10
20
00
30
50
E0
80
90
60
ENDCHAR

STARTCHAR ecircumflex
ENCODING 234
SWIDTH 344 0
DWIDTH 5 0
BBX 5 9 0 0
BITMAP
18
28
00
30
50
E0
80
90
60
ENDCHAR

STARTCHAR edieresis
ENCODING 235
SWIDTH 344 0
DWIDTH 5 0
BBX 5 8 0 0
BITMAP
28
00
30
50
E0
80
90
60
ENDCHAR

STARTCHAR igrave
ENCODING 236
SWIDTH 240 0
DWIDTH 4 0
BBX 3 9 1 0
BITMAP
80
40
00
C0
40
40
80
A0
C0
ENDCHAR

STARTCHAR iacute
ENCODING 237
SWIDTH 240 0
DWIDTH 4 0
BBX 3 9 1 0
BITMAP
20
40
00
C0
40
40
80
A0
C0
ENDCHAR

STARTCHAR icircumflex
ENCODING 238
SWIDTH 240 0
DWIDTH 4 0
BBX 3 9 1 0
BITMAP
60
A0
00
C0
40
40
80
A0
C0
ENDCHAR

STARTCHAR idieresis
ENCODING 239
SWIDTH 240 0
DWIDTH 4 0
BBX 3 8 1 0
BITMAP
A0
00
C0
40
40
80
A0
C0
ENDCHAR

STARTCHAR eth
ENCODING 240
SWIDTH 417 0
DWIDTH 6 0
BBX 5 9 1 0
BITMAP
28
30
50
30
50
90
90
A0
40
ENDCHAR

STARTCHAR ntilde
ENCODING 241
SWIDTH 469 0
DWIDTH 7 0
BBX 7 9 0 0
BITMAP
1A
2C
00
6C
B4
24
48
4A
4C
ENDCHAR

STARTCHAR ograve
ENCODING 242
SWIDTH 396 0
DWIDTH 6 0
BBX 4 9 1 0
BITMAP
40
20
00
20
50
90
90
A0
40
ENDCHAR

STARTCHAR oacute
ENCODING 243
SWIDTH 396 0
DWIDTH 6 0
BBX 4 9 1 0
BITMAP
10
20
00
20
50
90
90
A0
40
ENDCHAR

STARTCHAR ocircumflex
ENCODING 244
SWIDTH 396 0
DWIDTH 6 0
BBX 4 9 1 0
BITMAP
30
50
00
20
50
90
90
A0
40
ENDCHAR

STARTCHAR otilde
ENCODING 245
SWIDTH 396 0
DWIDTH 6 0
BBX 5 9 1 0
BITMAP
68
B0
00
20
50
90
90
A0
40
ENDCHAR

STARTCHAR odieresis
ENCODING 246
SWIDTH 396 0
DWIDTH 6 0
BBX 4 8 1 0
BITMAP
50
00
20
50
90
90
A0
40
ENDCHAR

STARTCHAR divide
ENCODING 247
SWIDTH 667 0
DWIDTH 10 0
BBX 7 7 2 2
BITMAP
10
00
00
FE
00
00
10
ENDCHAR

STARTCHAR oslash
ENCODING 248
SWIDTH 396 0
DWIDTH 6 0
BBX 5 8 0 -1
BITMAP
08
38
58
A8
A8
D0
E0
80
ENDCHAR

STARTCHAR ugrave
ENCODING 249
SWIDTH 469 0
DWIDTH 7 0
BBX 7 9 0 0
BITMAP
10
08
00
64
A4
24
48
5A
64
ENDCHAR

STARTCHAR uacute
ENCODING 250
SWIDTH 469 0
DWIDTH 7 0
BBX 7 9 0 0
BITMAP
08
10
00
64
A4
24
48
5A
64
ENDCHAR

STARTCHAR ucircumflex
ENCODING 251
SWIDTH 469 0
DWIDTH 7 0
BBX 7 9 0 0
BITMAP
0C
14
00
64
A4
24
48
5A
64
ENDCHAR

STARTCHAR udieresis
ENCODING 252
SWIDTH 469 0
DWIDTH 7 0
BBX 7 8 0 0
BITMAP
24
00
64
A4
24
48
5A
64
ENDCHAR

STARTCHAR yacute
ENCODING 253
SWIDTH 438 0
DWIDTH 7 0
BBX 6 12 1 -3
BITMAP
08
10
00
44
A4
28
28
30
20
20
40
E0
ENDCHAR

STARTCHAR thorn
ENCODING 254
SWIDTH 438 0
DWIDTH 7 0
BBX 7 13 -1 -3
BITMAP
30
10
10
10
2C
32
22
22
24
78
40
40
E0
ENDCHAR

STARTCHAR ydieresis
ENCODING 255
SWIDTH 438 0
DWIDTH 7 0
BBX 6 11 1 -3
BITMAP
24
00
44
A4
28
28
30
20
20
40
E0
ENDCHAR
ENDFONT
